<svg width="86" height="41" viewBox="0 0 86 41" fill="none" xmlns="http://www.w3.org/2000/svg">
<g id="Group 8">
<circle id="Ellipse 4" cx="2.5" cy="38.5" r="2.5" transform="rotate(-90 2.5 38.5)" fill="#FBA457"/>
<circle id="Ellipse 9" cx="11.5" cy="38.5" r="2.5" transform="rotate(-90 11.5 38.5)" fill="#FBA457"/>
<circle id="Ellipse 14" cx="20.5" cy="38.5" r="2.5" transform="rotate(-90 20.5 38.5)" fill="#FBA457"/>
<circle id="Ellipse 19" cx="29.5" cy="38.5" r="2.5" transform="rotate(-90 29.5 38.5)" fill="#FBA457"/>
<circle id="Ellipse 24" cx="38.5" cy="38.5" r="2.5" transform="rotate(-90 38.5 38.5)" fill="#FBA457"/>
<circle id="Ellipse 29" cx="47.5" cy="38.5" r="2.5" transform="rotate(-90 47.5 38.5)" fill="#FBA457"/>
<circle id="Ellipse 34" cx="56.5" cy="38.5" r="2.5" transform="rotate(-90 56.5 38.5)" fill="#FBA457"/>
<circle id="Ellipse 39" cx="65.5" cy="38.5" r="2.5" transform="rotate(-90 65.5 38.5)" fill="#FBA457"/>
<circle id="Ellipse 44" cx="74.5" cy="38.5" r="2.5" transform="rotate(-90 74.5 38.5)" fill="#FBA457"/>
<circle id="Ellipse 49" cx="83.5" cy="38.5" r="2.5" transform="rotate(-90 83.5 38.5)" fill="#FBA457"/>
<circle id="Ellipse 5" cx="2.5" cy="29.5" r="2.5" transform="rotate(-90 2.5 29.5)" fill="#FBA457"/>
<circle id="Ellipse 10" cx="11.5" cy="29.5" r="2.5" transform="rotate(-90 11.5 29.5)" fill="#FBA457"/>
<circle id="Ellipse 15" cx="20.5" cy="29.5" r="2.5" transform="rotate(-90 20.5 29.5)" fill="#FBA457"/>
<circle id="Ellipse 20" cx="29.5" cy="29.5" r="2.5" transform="rotate(-90 29.5 29.5)" fill="#FBA457"/>
<circle id="Ellipse 25" cx="38.5" cy="29.5" r="2.5" transform="rotate(-90 38.5 29.5)" fill="#FBA457"/>
<circle id="Ellipse 30" cx="47.5" cy="29.5" r="2.5" transform="rotate(-90 47.5 29.5)" fill="#FBA457"/>
<circle id="Ellipse 35" cx="56.5" cy="29.5" r="2.5" transform="rotate(-90 56.5 29.5)" fill="#FBA457"/>
<circle id="Ellipse 40" cx="65.5" cy="29.5" r="2.5" transform="rotate(-90 65.5 29.5)" fill="#FBA457"/>
<circle id="Ellipse 45" cx="74.5" cy="29.5" r="2.5" transform="rotate(-90 74.5 29.5)" fill="#FBA457"/>
<circle id="Ellipse 50" cx="83.5" cy="29.5" r="2.5" transform="rotate(-90 83.5 29.5)" fill="#FBA457"/>
<circle id="Ellipse 6" cx="2.5" cy="20.5" r="2.5" transform="rotate(-90 2.5 20.5)" fill="#FBA457"/>
<circle id="Ellipse 11" cx="11.5" cy="20.5" r="2.5" transform="rotate(-90 11.5 20.5)" fill="#FBA457"/>
<circle id="Ellipse 16" cx="20.5" cy="20.5" r="2.5" transform="rotate(-90 20.5 20.5)" fill="#FBA457"/>
<circle id="Ellipse 21" cx="29.5" cy="20.5" r="2.5" transform="rotate(-90 29.5 20.5)" fill="#FBA457"/>
<circle id="Ellipse 26" cx="38.5" cy="20.5" r="2.5" transform="rotate(-90 38.5 20.5)" fill="#FBA457"/>
<circle id="Ellipse 31" cx="47.5" cy="20.5" r="2.5" transform="rotate(-90 47.5 20.5)" fill="#FBA457"/>
<circle id="Ellipse 36" cx="56.5" cy="20.5" r="2.5" transform="rotate(-90 56.5 20.5)" fill="#FBA457"/>
<circle id="Ellipse 41" cx="65.5" cy="20.5" r="2.5" transform="rotate(-90 65.5 20.5)" fill="#FBA457"/>
<circle id="Ellipse 46" cx="74.5" cy="20.5" r="2.5" transform="rotate(-90 74.5 20.5)" fill="#FBA457"/>
<circle id="Ellipse 51" cx="83.5" cy="20.5" r="2.5" transform="rotate(-90 83.5 20.5)" fill="#FBA457"/>
<circle id="Ellipse 7" cx="2.5" cy="11.5" r="2.5" transform="rotate(-90 2.5 11.5)" fill="#FBA457"/>
<circle id="Ellipse 12" cx="11.5" cy="11.5" r="2.5" transform="rotate(-90 11.5 11.5)" fill="#FBA457"/>
<circle id="Ellipse 17" cx="20.5" cy="11.5" r="2.5" transform="rotate(-90 20.5 11.5)" fill="#FBA457"/>
<circle id="Ellipse 22" cx="29.5" cy="11.5" r="2.5" transform="rotate(-90 29.5 11.5)" fill="#FBA457"/>
<circle id="Ellipse 27" cx="38.5" cy="11.5" r="2.5" transform="rotate(-90 38.5 11.5)" fill="#FBA457"/>
<circle id="Ellipse 32" cx="47.5" cy="11.5" r="2.5" transform="rotate(-90 47.5 11.5)" fill="#FBA457"/>
<circle id="Ellipse 37" cx="56.5" cy="11.5" r="2.5" transform="rotate(-90 56.5 11.5)" fill="#FBA457"/>
<circle id="Ellipse 42" cx="65.5" cy="11.5" r="2.5" transform="rotate(-90 65.5 11.5)" fill="#FBA457"/>
<circle id="Ellipse 47" cx="74.5" cy="11.5" r="2.5" transform="rotate(-90 74.5 11.5)" fill="#FBA457"/>
<circle id="Ellipse 52" cx="83.5" cy="11.5" r="2.5" transform="rotate(-90 83.5 11.5)" fill="#FBA457"/>
<circle id="Ellipse 8" cx="2.5" cy="2.5" r="2.5" transform="rotate(-90 2.5 2.5)" fill="#FBA457"/>
<circle id="Ellipse 13" cx="11.5" cy="2.5" r="2.5" transform="rotate(-90 11.5 2.5)" fill="#FBA457"/>
<circle id="Ellipse 18" cx="20.5" cy="2.5" r="2.5" transform="rotate(-90 20.5 2.5)" fill="#FBA457"/>
<circle id="Ellipse 23" cx="29.5" cy="2.5" r="2.5" transform="rotate(-90 29.5 2.5)" fill="#FBA457"/>
<circle id="Ellipse 28" cx="38.5" cy="2.5" r="2.5" transform="rotate(-90 38.5 2.5)" fill="#FBA457"/>
<circle id="Ellipse 33" cx="47.5" cy="2.5" r="2.5" transform="rotate(-90 47.5 2.5)" fill="#FBA457"/>
<circle id="Ellipse 38" cx="56.5" cy="2.5" r="2.5" transform="rotate(-90 56.5 2.5)" fill="#FBA457"/>
<circle id="Ellipse 43" cx="65.5" cy="2.5" r="2.5" transform="rotate(-90 65.5 2.5)" fill="#FBA457"/>
<circle id="Ellipse 48" cx="74.5" cy="2.5" r="2.5" transform="rotate(-90 74.5 2.5)" fill="#FBA457"/>
<circle id="Ellipse 53" cx="83.5" cy="2.5" r="2.5" transform="rotate(-90 83.5 2.5)" fill="#FBA457"/>
</g>
</svg>
